/* XPM */
static char *brexocoin64_xpm[] = {
/* width height num_colors chars_per_pixel */
"    64    64      256            2",
/* colors */
"`` c #04029b",
"`. c #9c8244",
"`# c #8c2244",
"`a c #044284",
"`b c #f1c90c",
"`c c #443873",
"`d c #bc465c",
"`e c #14226c",
"`f c #4c426f",
"`g c #b9992c",
"`h c #bcc9d6",
"`i c #d0e2f0",
"`j c #242287",
"`k c #d00e20",
"`l c #7c6454",
"`m c #ec868c",
"`n c #c4263c",
"`o c #ed454c",
"`p c #041492",
"`q c #ec646c",
"`r c #04347c",
"`s c #6c564c",
"`t c #b4b1e0",
"`u c #f7c2c4",
"`v c #98a4bc",
"`w c #fce4e5",
"`x c #ec030b",
"`y c #2c5e94",
"`z c #4745b4",
"`A c #244274",
"`B c #243e74",
"`C c #14336d",
"`D c #040c90",
"`E c #f4a5a9",
"`F c #ecf3f7",
"`G c #6486ac",
"`H c #ec131d",
"`I c #546794",
"`J c #e4262c",
"`K c #dc727c",
"`L c #ec545b",
"`M c #445c8c",
"`N c #ccd6e0",
"`O c #1c148f",
"`P c #9c829c",
"`Q c #646e9c",
"`R c #e43440",
"`S c #f4d3d4",
"`T c #f4b3b5",
"`U c #f3fbfc",
"`V c #d4b20c",
"`W c #140e98",
"`X c #0c4e8c",
"`Y c #2422a6",
"`Z c #043d84",
"`0 c #fcdc04",
"`1 c #245490",
"`2 c #3434b0",
"`3 c #8492af",
"`4 c #f49498",
"`5 c #ec6b71",
"`6 c #94bad4",
"`7 c #143d7b",
"`8 c #040b9c",
".` c #ec1c24",
".. c #ec5c64",
".# c #1c4480",
".a c #04238c",
".b c #e4f0f8",
".c c #ec0c18",
".d c #e42c34",
".e c #545e94",
".f c #64769c",
".g c #f4dcde",
".h c #0402a6",
".i c #443eb0",
".j c #cccdec",
".k c #fcf5f2",
".l c #1c1a8c",
".m c #f4bcbf",
".n c #b01a34",
".o c #846f4c",
".p c #445284",
".q c #c4a328",
".r c #dce4ec",
".s c #cc1224",
".t c #041b94",
".u c #4c4cb9",
".v c #344480",
".w c #ec7274",
".x c #dcdee4",
".y c #8c92d4",
".z c #084a84",
".A c #dcc264",
".B c #6c224c",
".C c #e44a54",
".D c #04348a",
".E c #7c527c",
".F c #b4becc",
".G c #4773a4",
".H c #d0deec",
".I c #ec3c45",
".J c #2c2da9",
".K c #5453bb",
".L c #f37b81",
".M c #0c069c",
".N c #5c4a54",
".O c #c4cedd",
".P c #f38c90",
".Q c #141291",
".R c #a4a4dc",
".S c #eceef7",
".T c #1c366d",
".U c #f4adb2",
".V c #fcfefc",
".W c #e1bd14",
".X c #3c3bb2",
".Y c #fc6a6c",
".Z c #fc1b20",
".0 c #fc5c60",
".1 c #042b8c",
".2 c #1d1ba4",
".3 c #9c7e2c",
".4 c #dceafc",
".5 c #5c5cbb",
".6 c #0c4284",
".7 c #fcd304",
".8 c #342b7c",
"#` c #6f5d5c",
"#. c #fcde54",
"## c #6492bc",
"#a c #3c6e9c",
"#b c #8484cc",
"#c c #a45a74",
"#d c #7877c8",
"#e c #9c9294",
"#f c #e4040c",
"#g c #e41521",
"#h c #6566c3",
"#i c #5c3264",
"#j c #3c3477",
"#k c #5c4e64",
"#l c #3c5284",
"#m c #5c729c",
"#n c #949ebc",
"#o c #7898bc",
"#p c #aa8d36",
"#q c #042e74",
"#r c #642e5c",
"#s c #b0263c",
"#t c #6d6fc4",
"#u c #fcee4c",
"#v c #a4aec4",
"#w c #a4b2c9",
"#x c #949ab4",
"#y c #f4ced4",
"#z c #f39ca0",
"#A c #942a4c",
"#B c #fcce04",
"#C c #1c5494",
"#D c #947644",
"#E c #8c9eb4",
"#F c #374d81",
"#G c #8c8ed4",
"#H c #c49e2c",
"#I c #4456ac",
"#J c #cc1e34",
"#K c #e4ce64",
"#L c #e40e1c",
"#M c #34267c",
"#N c #fc0a12",
"#O c #fcedec",
"#P c #142e6c",
"#Q c #dcb617",
"#R c #fc868c",
"#S c #7486a4",
"#T c #fc161c",
"#U c #f4262c",
"#V c #f42e34",
"#W c #f44e54",
"#X c #144a8c",
"#Y c #547aac",
"#Z c #742e54",
"#0 c #bc1a34",
"#1 c #685460",
"#2 c #d1d6ef",
"#3 c #bcbce3",
"#4 c #947a44",
"#5 c #9c9cd4",
"#6 c #882a4c",
"#7 c #4c3e74",
"#8 c #94aac4",
"a` c #34669c",
"a. c #8c7648",
"a# c #7c7ecc",
"aa c #bc9e2c",
"ab c #d4d2ec",
"ac c #3c76ac",
"ad c #acaedc",
"ae c #a4bad4",
"af c #d4ae20",
"ag c #f40204",
"ah c #f4565c",
"ai c #0c3e83",
"aj c #0c2294",
"ak c #fcdddb",
"al c #fcbcba",
"am c #0c2a64",
"an c #fcccca",
"ao c #b4b6e4",
"ap c #245a94",
"aq c #7c5a84",
"ar c #7c6a54",
"as c #fce204",
"at c #5c4a66",
"au c #1412a4",
"av c #e4eaec",
"aw c #a4863c",
"ax c #54436c",
"ay c #c4cadb",
"az c #2c2684",
"aA c #f4858b",
"aB c #cc2234",
"aC c #f46469",
"aD c #0c367c",
"aE c #2c437a",
"aF c #0c0d94",
"aG c #fca6a4",
"aH c #f4f4f9",
"aI c #6c82a4",
"aJ c #f4121c",
"aK c #5c6898",
"aL c #ec232d",
"aM c #d4d8e0",
"aN c #ec333d",
"aO c #fcd4d3",
"aP c #fcb6b8",
"aQ c #2c25ac",
"aR c #3c36b1",
"aS c #f46b74",
"aT c #9cb6cc",
"aU c #1c3c77",
"aV c #0c0b9d",
"aW c #f41a24",
"aX c #f45c63",
"aY c #f40e1c",
"aZ c #ec2c36",
"a0 c #0c06a4",
"a1 c #241d88",
"a2 c #cca624",
"a3 c #e4e5f3",
"a4 c #544cb8",
"a5 c #f4747a",
"a6 c #ec4c54",
"a7 c #342ea9",
"a8 c #5c56bc",
/* pixels */
"`a`Z`a`a`Z`a`a`Z`a`a`Z`a`a`Z`a`a`Z`a`a`Z`a`a`Z`a`a`Z`a`a`Z`a`a`Z`a`a`Z`a`a`Z`a`a`Z`a`a`Z`a`a`Z`a`a`Z`a`a`Z`a`a`Z`a`a`Z`a`a`Z`a`a",
"`a`Z`a`Z`a`Z`a`a`Z`a`a`Z`a`a`Z`a`a`Z`a`a`Z`a`a`Z`a`a.6`a.6`Zai`aai`Z.6`Z.6`Z`a`Z`a`Z`a`a`Z`a`a`Z`a`a`Z`a`a`Z`a`a`Z`a`a`Z`a`a`Z`a",
"`a`Z`a`a`Z`a`Z`a`a`Z`a`a`Z`a`a`Z`a`a`Z`a`a`Z`a`a`Z`Z`r`r`Z`a`a`a`a`a`a`a`a`a`Z.6`a`a`Z`a`a`Z`a`a`Z`a`a`Z`a`a`Z`a`a`Z`a`a`Z`a`a`Z",
"`a`Z`a`Z`a`a`a`Z`a`a`Z`a`a`Z`a`a`Z`a`a`Z`a`a`Z`a`Z#C.G##.E#6#6#A#6#6#r#i#j`7`a`r`r`Z`a`Z`a`Z`a`Z`a`Z`a`a`Z`a`a`Z`a`a`Z`a`a`Z`a`a",
"`a`Z`a`a`Z`a`Z`a`Z`a`a`Z`a`a`Z`a`a`Z`a`a`Z`a`7.#`C`h.V.V.Y#N#T#T#T.Z#T.ZaJ.C.H#8.G.z`a`a`a`Z`a`Z`a`a`Z`a`a`Z`a`a`Z`a`a`Z`a`a`Z`a",
"`a`Z`a`Z`a`Z`a`a`a`Z`a`a`Z`a`a`Z`a`a`Z.6aU.#`B`B.T.O.V`U`5#L.`.`.`.`#gaL#La6.V`U.V#5`p`Z`a`a`Z`a`Z`a`a`Z`a`a`Z`a`a`Z`a`a`Z`a`a`Z",
"`a`Z`a`a`Z`a`Z`a`Z`a`Z`a`a`Z`a`a`Z.6aU`B`B`B`B`A.Tay.V.VaS.c.`.`.`.`.`.`.ca6.VaH.V.5`````p`Z`a`a`Z`a`Z`a`Z`a`a`Z`a`a`Z`a`a`Z`a`a",
"`a`Z`a`Z`a`a`Z`a`a`Z`a`Z`a`a`Z.6aU`B`B`B`B`B`B`B.Tay.V.V`5.c.`.``H.`.`.``Ha6.V.V.S.2``````.M.t`Z`a`a`Z`a`a`Z`a`a`Z`a`a`Z`a`a`Z`a",
"`a`Z`a`a`Z`a`a`Z`a`a`Z`a`Z`aai`B`A`BaU`A`B`B`B`A.Tay.V.VaS.c.`.`.`.``H.`.ca6.V.V`t``.Q.h````aFaF.D`a`a`Z`a`a`Z`a`a`Z`a`a`Z`a`a`Z",
"`a`Z`a`Z`a`Z`a`a`Z`a`a.6`aaU`B`BaU`B`B`B`B`B`B`B`C.O.V.V`5.c.`.``H.`.`.``Ha6.V.V#h``#``l.h#j`.````.a`a`a`Z`a`Z`a`Z`a`Z`a`a`Z`a`a",
"`a`Z`a`a`Z`a`Z`a`a`a`Z`r`7aE`B`B`B`B`B`BaU`B`B`A.Tay.V.V`5.c.`.`.`.`.`.`.ca6.VaH`Y```j.7`g.7#`.h````.t`a`a`Z`a`Z`a`a`a`Z`a`a`Z`a",
"`a`Z`a`Z`a`a`a`Z.6`r`y#w#lam`A`B`B`BaU`A`B`B`B`A`C.O.V.VaS.c.`.``H.`.`.`.c`o.V#3``.h.Q#Q`0.7ax.h```````p`a`a`Z`a`Z`a`Z`a`Z`a`a`Z",
"`a`Z`a`a`Z`a`Z`a`Z#C.r.V`F`3.T.T`A`A`B`B`B`BaU`A.Tay.V.V`5.c.`.`.``H.`.`.ca6.V#t``#7.W`0#B#B.7.o`````````p`a`Z`a`a`Z`a`a`a`Z`a`a",
"`a`Z`a`Z`a`Z`a`Z#X.H.V.V.V.VaM`Iam`B`A`BaU`A`B`A.Tay.V.VaS.c.`.`.`.`.`aL.c.P.V`Y``#j`cax.7#Daz`f.Q`````````p`a`a`Z`a`Z`a`Z`a`Z`a",
"`a`Z`a`a`Z`a`a`Z`h.V.V.V.V.V.V.V#vaE`C`B`A`B`B`B`C.O.V.V`5.c.`.``H.`.``H#gak.j``````.h``.q#j.h.h````````````.a`a`a`a`Z`a`a`Z`a`Z",
"`a`Z`a`Z`a.6`r`3.V.V.V.V.V.V.V`U.VavaI.T.T`A`B`A.Tay.V.V`5.c.`.`.`.`.`.c.I.V#d``````````#7aF``````````````````.D`a`Z`a`Z`a`a`Z`a",
"`a`Z`a`a`Z`a`c#U.PaH.V.V.k.V.V.V.V.V.Vay.p`C`B`A.T.O.V.VaS.c.`.``H.`aL.c`m.V.J``````````````````````.h.h``.M.h```Z`a`a`a`Z`a`a`Z",
"`a`Z`a`Z`aaDaBaW#f.I`T.V.V.V.V.V.V.V.V.VaH#E`BaD`Bay.V.V`5.c.`.`.`.`.`#LaO#2``````````````````````.hazaz.h.h.8a1`p`a`Z`a`a`Z`a`a",
"`a`Z`a.6`Zaq.Z#LaL`H.c...g.V.V.k.V.V.V.V.V.V.x`Qam`h.V.VaS.c.`.``H.``HaN.V#b``````````````````````.h.l.W#7#1`V`W``.D`a`Z`a`a`Z`a",
"`a`Z`a`Z#C`F`S`L.c`HaL.c.`aA.k.V.V.V.V.V.V.V.V.V#v`N.V.V`5.c.`.`.`aL.c.L.V`2``````````````.h````````.h#p`0asa..h```p`a`a`Z`a`a`Z",
"`a`a.6`r`G.V.V.V.UaN.c.`.`.caN`T.V.V.V.V.V.V.V.V.V.V.V.VaS.c.`.``H.`#Lan.H.M`````````````````````````c.W.7.7#Q#j.h``.D`a`Z`a`Z`a",
"`Z`a`a`Z.TaKab.V.V.k`m.`.c.`.c.ca6`S.V.V.V.V.V.V.V.V.V.VaS.c.`.`.``H.d.V#G````````````.h````````.h#j.qa2`b`b#H`g.8``.t`a`a`Z`a`Z",
"`a`Z`Z#X.paE#F`v.k.V.V.g..aZaNaNaLaZ#z.k.V.V.V.V.V.V.V.V`q.c.`.`.`.c.w.V.i````````````````````````.M``.h`g#p.h``.M`````Z`a`Z`a`a",
"`a`a`raT.V#OaHavaH.V.k.V.V#OaH#OaH#O`w.k.V.V.k.V.V.k.k.VaS.c.`.`.`#Lal.4.M``````````````````.h````````.h#`at.h````````.1`a`a`Z`a",
"`a`Z.z.b.V.V.V.V.V.V.V.V.V.V.V.V.V.V.V.V.V.V.V.V.V.V.V.VaS.c.`.``HaZ.V#5````aV.h````.h``aV.haV``````````.QaF``aV````.h.t`a`a`Z`a",
"`a`Z#laG`E`E`E`E`E`E`E.U`E`E`E`E`E`E`E`E`E`E`E`E`E`E`E`Ta6`H.`.`.c`q.V.u```````````````````````````````````````````````D`Z`a`Z`a",
"ai`a#rag#f`x`x`x.c`x`x`x`x.c.c`x`x`x`x.c#f`x.c#f`x.c`x`x`x.`.`.`#LaP.baF```2a##b.i````.J#d#b.i```````z#t.2aF#t.u``aF#h.u`r`a`a`Z",
"`a`a#6.Z`L.PaAaN`HaN.L.P...`.`ah`5a5`qaLaSa6`HaX..`HaN.P.L.`.``H`J.k.R``#b.V.V.Vad``.u`U.V.V.V.5````.j.V.J`z.V.SaVa7.V`t.a`a`a`a",
"`Z`a#saWak.k#O#O.`.L.V`w.V.L`H#O.V.VaOaZ.V`EaZ.VaAaZ#O.V.V.m.`.c...V`z.u.V`F#h`zaQaFav.V#h#t.Vab``.2aHaH.ha#.V.V.X.K.V#d`p.z`Z`Z",
"`a`a#0#V.V..aC.VaL.U`w.c.k`EaZ.Va5`xaL.canaO`uaO`x`T.VaL`4.V.I`x.U`F.2.j.V.5``````#h.V#3```Y.V`F.M.X.V.j```t.V.V#t#b.Va4`p`a`a`a",
"`a`a.saX.VaO#O.P.cakakaA.VaC...Vak#y.I`xa5.V#OaN.`.VaP`xaA.V.I`H.k.R`Y.Va3`W``aV``.R.V#d``.J.V.S``#h.V#5``.ra3.j`t`t.VaQ`p`a`a`Z",
"`Z.6`k#R.V.P.VaA.`.k#O.V`E`x`4.V#z#z#U`H`u.V`w.`.I.V.P#f.U.V.`a6.V.u.u.V#3``.M````#3.V.K``.u.V.j``#5.V#haF.V#3#taH`Fa3.M`p`a`a`a",
"`a`a`kalak.c`w`T`o.V`qaO`T`x`u`w.c.`.c`4.k.P.VaXaL.V#zaL.Val`x`5.V.J.5.V#3````````#3.V.K``#5.V#G``.j.V`2aR.V#Ga7.V.V#3``.t`a`a`Z",
"`a`ZaBak.V.k.V`oa5.VaL`T.VaL`w.V.Vak`o.V.PaL.V#z`xal.V.V#O.I`x`q.Va7aR.VaHa#.y.X``#G.Vaoa#.VaH`YaF`F.V.M#t.V#haVaH.V#G``.a`a`a`Z",
"`a`Z`n.0`5aSaN.c`oaS.``oaCaZaXaSaS`L.IaSaZ.`aC#W`HaLa5aAaZ`H`H`q.V.X``ao.V.V.V#t``.2aM.V.VaH.K```2.Vab``#5.V.i``.j.V.5``.a`a`Z`a",
"`Z`a.nag#f`x`x.c`x#f.c`x`x.c#f`x#f`x`x`x.c.c#f`x#L.c`x#f.caL.c...V.i``aV`za8`2```````W.u.K`O````aVaR`Y```Y`2aV```YaRaV``.a`a`a`Z",
".6`Z`PaP.U`T.U`T.U`T.U`T.U.U`T.U`T.U`T`T.U.U`T.U.U.U.U.ma6`H.c`q.V.X``````````````````````````````````````````````````.h.1`a`a`a",
"`a`r#o.V`U.V.V.V.V.V.V.V.V.V.V.V.V.V.V.V.V.V.V.V.V.V.V.VaS`H.c`q.V.i````````````````````````````````````````.h``````````.D`a`a`Z",
"`a`r.G.V.V.V.V.V.k.V.V.V.V.V.V.k.V.V.V.V.V.V.V.V.k.V.k.VaS.c`H...V.i````````````````````````````````````.h`````````````8`Z`a`a`Z",
"`a`Z.6#m`QaK.e#naH.V.V.V.V.V.k.V.k.Pa6a6`L`L`o`o#z.V.V.V`5.c`H...V`z````````````````````````````````.h````````````.h```p`a`a`Z`a",
"`a`a`a`C`e.v#v.V.V.V.V.V.V.V.Val.I.c.c`H.c`xaZ.U`U.V.V.VaS.c`H...V`z````````````````````.h````.h``.h`OaF.h.h.Q.Q``````.a`a`a`Z`a",
"`Z`a`Z.##EaH.V.V.V.V.V.V.V`w`5.c`H.`aL`H.``m.k.V.V.V.V.VaS.c.c...V`z````````````````.h``````````````az.q.Qaz.q.l.h`````Z`a`Z`a`Z",
"`a`a`Z#CaH.V.V.V.V.V.V.V#zaL.c.`aL`H.ca6`S.V.V.Vay.x.V.V`5.c`H...V`z```````````````````````````````8.haa`b.7aw.h`````p`Z`Z`a`a`a",
"`Z`a`a`raT.V.V.V.V.V#y`o.c`HaL.`.c`J`E`U.V.VaH`3#P`h.V.VaS.c`H`L.V`z````````````.h````````````````.haF`g`0.7#paF````.1`a`a`Z`a`Z",
"`a`Z`a`ra`.V.V.V#O.L`H.caL.``H#L`5#O.V.V.V.F#F`C.T.O.V.V`5.c`H`L.V`z``````````````````````.h````.h.8af#B#B`b#B.qa1```a`a`Z`a`Z`a",
"`a`Z`a`a`rae.V.UaN#L.`.`.`.c.I`u.V.V.V.r`Q`CaUaE.Tay.V.VaS.c`H`L.V`z``````````````````.h``````````.la1aFaf#H``az`O.a`a`a`a`Z`a`Z",
"`a`a`a`a`Zap`q.c`H.`.`.c.`.P`U.V.V`U#n`A`C`A`B`B.T.O.V.V`5.c`H`L.V.u````````````.h````````````````````.h.o#`.h```8`a`a`a`Z`a`a`a",
"`Z`a`Z`Z.6`Z.B.Z.``H.c...g`U.V.V.O`M#P`B`A`B`B`A.Tay.V.VaS.c`H`L.V`z``````````````````aV``````````````.ha1.l````.D`a`a`Z`a`Z`a`Z",
"`a`Z`a`a`Z`a`a#saY.d`T`U.V.V.S#S.T.TaE`B`B`B`B`B.T.O.V.V`5.c`H`L.V.u``````````````aV``.h``.haV````.h``````````.a`a`a`Z`a`a`Z`a`a",
"`a`Z`a`Z`a`a`a`C`K.k.V.V.V#w#F#P`B`A`B`B`B`B`B`A.Tay.V.VaS.c`H`L.V.u``````````````.h.o.8.h`f`l.h`````````````p`a`a`Z`a`Z`a`a`Z`a",
"`a`Z`a`a`Z`a`a`Zac`U.VaMaK`C.T`A`B`B`B`B`B`B`B`B.T.O.V.V`5.c`H.C.Va4``````````.haV.h#``b#4.7`c.h```````````8`Z`a`Z`a`a`a`Z`a`a`Z",
"`a`Z`a`Z`a`Z`a`Z#q#Y#naU`C`A`A`B`B`B`B`B`B`B`B`A`C.O.V.VaS.c`H`L.V.K``aF``````````.haz.7`0.W`O.h`````````8`Z`a`Z`a`Z`a`Z`a`Z`a`a",
"`a`Z`a`a`Z`a`Z`a`a`Z`r`B`B`B`B`B`B`B`BaU`B`BaU`A.T.O.V.V`5.c`Ha6.V.u.N#j.h````````at`b`0`b`0.W`c```````8.D`a`Z`a`Z`a`Z`a`a`a`Z`a",
"`a`Z`a`Z`a`a`a`Z`a`Z`aai`B`B`B`B`BaU`B`B`B`B`B`A.Tay.V.VaS.c`H`L.V.A`VaV````````aF#1ata.`0`latat`````8`Z`a`Z`a`Z`a`a`a`Z`a`Z`a`Z",
"`a`Z`a`a`Z`a`Z`a`Z`a`a`a.6aU`B`B`B`B`B`B`B`B`B`B.T.O.V.V`5.c`Ha6`U#u.3.h.h``````.h.h.ha1#Q`W.h.h```p`Z`a`Z`a`a`a`Z`a`Z`a`Z`a`a`a",
"`a`Z`a`Z`a`Z`a`a`a`Z`a`Z`a`Z`7`B`B`B`BaU`A`B`B`A.Tay.V.VaS.c`H`L.V#.`0aw`W`````````````W#k``````.a`a`a`Z`a`Z`a`Z`a`Z`a`a`a`Z`a`Z",
"`a`Z`a`a`Z`a`Z`a`Z`a`Z`a`Z`a`aaiaU`A`B`B`B`B`B`B.T.O.V.V`5.c`Ha6.V#K`s`l#j```````````````````D.D`a`a`a`a`Z`a`Z`a`a`a`Z`a`Z`a`Z`a",
"`a`Z`a`Z`a`a`Z`a`a`Z`a`a`a`Z`a`a`a`7aU`A`B`BaU`A.Tay.V.VaS.c`H.C.V#e``.h.h````````````.h`D.1`a`a`a`Z`a`Z`a`a`a`Z`a`Z`a`Z`a`a`a`Z",
"`a`Z`a`a`Z`a`a`Z`a`a`Z`a`Z`a`Z`a`Z`a`a`7aU`B`B`A.Tay.V`U`5#L`H.C.V.5``aF``````.h``.h`p.a`a`a`a`Z`a`a`Z`a`Z`a`Z`a`Z`a`a`a`Z`a`Z`a",
"`a`Z`a`Z`a`Z`a`a`Z`a`a`Z`a`a`Z`a`a`Z`a`a`a.6`7`AaD.O.V.V.Y#NaJ`o.Va8```````````p.t.D`a`a`a`Z`a`Z`a`Z`a`a`Z`a`a`Z`a`Z`a`Z`a`Z`a`Z",
"`a`Z`a`a`Z`a`Z`a`a`Z`a`a`Z`a`a`Z`a`a`Z`a`Z`a`Z`aai#a#oaT#c.n#0`d`i#I`D.t.a.D`Z`a`a`a`a`a`Z`a`Z`a`Z`a`Z`a`a`Z`a`a`Z`a`Z`a`a`a`Z`a",
"`a`Z`a`Z`a`a`a`Z`a`a`Z`a`a`Z`a`a`Z`a`a`Z`a`Z`a`Z`a.D`r`r`Z`a`a`a`Z`Z`a`a`a`a`a`Z`a`a`Z`a`a`Z`a`a`a`Z`a`Z`a`a`Z`a`a`Z`a`Z`a`Z`a`Z",
"`a`Z`a`a`Z`a`Z`a`Z`a`a`Z`a`a`Z`a`a`Z`a`a`Z`a`a`a`Z`a`a`a`a`a`a`Z`a`Z`a`a`a`Z`a`Z`a`Z`a`Z`a`a`Z`a`Z`a`a`a`Z`a`a`Z`a`a`Z`a`Z`a`a`a",
"`a`Z`a`Z`a`Z`a`a`a`Z`a`a`Z`a`a`Z`a`a`Z`a`a`Z`a`Z`a`a`a`a`Z`a`Z`a`a`a`Z`a`Z`a`Z`a`Z`a`a`a`Z`a`a`Z`a`Z`a`Z`a`Z`a`a`Z`a`a`Z`a`Z`a`Z"
};
