/* XPM */
static char *brexocoin16_xpm[] = {
/* width height num_colors chars_per_pixel */
"    64    64      256            2",
/* colors */
"`` c #04029b",
"`. c #9c8244",
"`# c #8c2244",
"`a c #044284",
"`b c #e4c214",
"`c c #443873",
"`d c #bc465c",
"`e c #14226c",
"`f c #b9992c",
"`g c #4c426f",
"`h c #bcc6d6",
"`i c #d0e2f0",
"`j c #242284",
"`k c #e4040c",
"`l c #74625c",
"`m c #ec868c",
"`n c #c4263c",
"`o c #e44654",
"`p c #041492",
"`q c #ec646c",
"`r c #9ca2bc",
"`s c #b4b1e1",
"`t c #04347c",
"`u c #f4c2c4",
"`v c #fce4e4",
"`w c #6c564c",
"`x c #34629c",
"`y c #ec030c",
"`z c #243e74",
"`A c #244274",
"`B c #4545b4",
"`C c #6482ac",
"`D c #14336d",
"`E c #446ca0",
"`F c #ecf4f8",
"`G c #f4a4a6",
"`H c #040b8f",
"`I c #ec131d",
"`J c #848eac",
"`K c #646e9c",
"`L c #ec535d",
"`M c #ccd3dc",
"`N c #e4222c",
"`O c #ec7274",
"`P c #1c158f",
"`Q c #f4d2d4",
"`R c #445a8c",
"`S c #f4fcfc",
"`T c #e43440",
"`U c #d4b20c",
"`V c #2423a7",
"`W c #f4b5ba",
"`X c #8492b4",
"`Y c #fcdb04",
"`Z c #245490",
"`0 c #1c5290",
"`1 c #ec969c",
"`2 c #043d84",
"`3 c #3434ae",
"`4 c #140e98",
"`5 c #6c7ea4",
"`6 c #1c4480",
"`7 c #f4656b",
"`8 c #9cb2cc",
".` c #143d7b",
".. c #ec1c24",
".# c #04238e",
".a c #445284",
".b c #e4f0f8",
".c c #ec0d18",
".d c #ec5c63",
".e c #0402a6",
".f c #b01a34",
".g c #dcc264",
".h c #443eb2",
".i c #bccad4",
".j c #e44a54",
".k c #041b94",
".l c #34447c",
".m c #fcf5f2",
".n c #040b9c",
".o c #ccdaec",
".p c #f4dbdc",
".q c #094a87",
".r c #846f4c",
".s c #c4a429",
".t c #dce4ec",
".u c #4c72a4",
".v c #eb2b34",
".w c #5454ba",
".x c #312cab",
".y c #9496b4",
".z c #fcd105",
".A c #6c224c",
".B c #5c4e54",
".C c #cc1224",
".D c #f38d91",
".E c #141392",
".F c #b4bacc",
".G c #04348a",
".H c #ecedf5",
".I c #4d4db6",
".J c #f4adb1",
".K c #6566c2",
".L c #211b89",
".M c #ec3c45",
".N c #f9bcbd",
".O c #3c3ab2",
".P c #0c069c",
".Q c #332c7d",
".R c #a4a5dc",
".S c #faccca",
".T c #7c5274",
".U c #1c366c",
".V c #8482cc",
".W c #f37c7f",
".X c #fcfefc",
".Y c #dfbc14",
".Z c #f46a6d",
".0 c #fc1b21",
".1 c #042b8c",
".2 c #fc5a64",
".3 c #9c7e9c",
".4 c #dceafc",
".5 c #6d6dc4",
".6 c #0c4284",
".7 c #34327c",
".8 c #6492bc",
"#` c #576896",
"#. c #fcde5c",
"## c #a45a74",
"#a c #9c7e2c",
"#b c #3c76ac",
"#c c #7475c4",
"#d c #5c5264",
"#e c #5c3264",
"#f c #e41624",
"#g c #7482a4",
"#h c #ac8f34",
"#i c #3c5284",
"#j c #0c2a64",
"#k c #d40e20",
"#l c #9c8e94",
"#m c #7898bc",
"#n c #dc6e7c",
"#o c #642e5c",
"#p c #745e5c",
"#q c #fcee4c",
"#r c #9b9cd5",
"#s c #b0263c",
"#t c #dcb614",
"#u c #a4adc4",
"#v c #4456ac",
"#w c #a4b3cc",
"#x c #f29c9f",
"#y c #cccdec",
"#z c #142e6c",
"#A c #942a4c",
"#B c #f4ca0c",
"#C c #5c729c",
"#D c #374b81",
"#E c #5c5bbb",
"#F c #8b8dd2",
"#G c #7c7dcc",
"#H c #7c8eac",
"#I c #8c9cb4",
"#J c #e4ce64",
"#K c #cc1e34",
"#L c #f43234",
"#M c #fc0b12",
"#N c #fcecec",
"#O c #1e1ba4",
"#P c #ec6b6f",
"#Q c #7c5a7c",
"#R c #6c5e5c",
"#S c #d4b61c",
"#T c #fc868c",
"#U c #f4464c",
"#V c #fc161c",
"#W c #f4262c",
"#X c #f44c54",
"#Y c #dcdee4",
"#Z c #bc1c34",
"#0 c #144a8c",
"#1 c #e40e1c",
"#2 c #742e54",
"#3 c #c0c4e8",
"#4 c #69595f",
"#5 c #d2d4ee",
"#6 c #d0ae20",
"#7 c #c4ceec",
"#8 c #bcbbe3",
"a` c #947a44",
"a. c #042e7c",
"a# c #acaedc",
"aa c #a48a3c",
"ab c #882a4c",
"ac c #ecca0c",
"ad c #4c3e74",
"ae c #7c6a54",
"af c #94aac4",
"ag c #285a94",
"ah c #94bad4",
"ai c #8c7648",
"aj c #c4aa24",
"ak c #bc9e2c",
"al c #547aa4",
"am c #5c4d66",
"an c #1412a4",
"ao c #f40204",
"ap c #fcd4d4",
"aq c #0c3e82",
"ar c #0c2294",
"as c #3c3477",
"at c #b4b6e4",
"au c #949ebc",
"av c #fcd604",
"aw c #fce204",
"ax c #445a84",
"ay c #e4eaec",
"az c #a4863c",
"aA c #ecc60c",
"aB c #54456c",
"aC c #2c2486",
"aD c #7c6654",
"aE c #f4858b",
"aF c #cc2234",
"aG c #ec454c",
"aH c #0c367c",
"aI c #fcc4c8",
"aJ c #2c4379",
"aK c #f4f4fa",
"aL c #fca2a4",
"aM c #0c0d94",
"aN c #f4121c",
"aO c #f4565c",
"aP c #d4d6e4",
"aQ c #ec242d",
"aR c #f4737a",
"aS c #4c5e94",
"aT c #ec333c",
"aU c #2c25a8",
"aV c #fcb6b4",
"aW c #f49397",
"aX c #3c36b2",
"aY c #1c3c77",
"aZ c #f41a24",
"a0 c #f45c62",
"a1 c #0c06a4",
"a2 c #c4cadc",
"a3 c #ec4c54",
"a4 c #0c0b9c",
"a5 c #d4dee8",
"a6 c #fcdcdb",
"a7 c #cca624",
"a8 c #e4e5f3",
/* pixels */
"`a`2`a`a`2`a`a`2`a`a`2`a`a`2`a`a`2`a`a`2`a`a`2`a`a`2`a`a`2`a`a`2`a`a`2`a`a`2`a`a`2`a`a`2`a`a`2`a`a`2`a`a`2`a`a`2`a`a`2`a`a`2`a`a",
"`a`2`a`2`a`2`a`a`2`a`a`2`a`a`2`a`a`2`a`a`2`a`a`2`a`a`a.6`aaq`2`aaq`2.6`2.6`2`a`2`a`2`a`a`2`a`a`2`a`a`2`a`a`2`a`a`2`a`a`2`a`a`2`a",
"`a`2`a`a`2`a`2`a`a`2`a`a`2`a`a`2`a`a`2`a`a`2`a`a`2`2`t`t`2`a`a`a`a`a`a`a`a`a`2`a.6`a`2`a`a`2`a`a`2`a`a`2`a`a`2`a`a`2`a`a`2`a`a`2",
"`a`2`a`2`a`a`a`2`a`a`2`a`a`2`a`a`2`a`a`2`a`a`2`a`2`0.u.8.T`#ab#A#Aab#o#e`c.``2`t`t`2`a`2`a`2`a`2`a`2`a`a`2`a`a`2`a`a`2`a`a`2`a`a",
"`a`2`a`a`2`a`2`a`2`a`a`2`a`a`2`a`a`2`a`a`2`aaq`6`D.i.X.X.Z#M.0#V#V.0#V.0`I`o.oaf#b#0`a`a`2`a`2`a`a`a`2`a`a`2`a`a`2`a`a`2`a`a`2`a",
"`a`2`a`2`a`2`a`a`a`2`a`a`2`a`a`2`a`a`2.6.``z`z`A.Ua2.X.X`q.c....#f....`N.ca3.X.X.X#r`H`2`a`a`2`a`2`a`2`a`2`a`2`a`a`2`a`a`2`a`a`2",
"`a`2`a`a`2`a`2`a`2`a`2`a`a`2`a`a`2.6aY`z`z`z`z`z.Ua2.X.X#P.c.............ca3.XaK.X#E````.k`t`a`a`2`a`a`2`a`a`a`2`a`a`2`a`a`2`a`a",
"`a`2`a`2`a`a`2`a`a`2`a`2`a`a`2.6aY`A`z`z`z`z`z`A.Ua2.X.X.Z.c......`I.....ca3.X.X.H#O``````.P.k`2`a`a`2`a`2`a`2`a`2`a`a`2`a`a`2`a",
"`a`2`a`a`2`a`a`2`a`a`2`a`2`aaq`z`zaY`z`z`z`z`z`A.Ua2.X.X#P.c.............ca3.X.Xa#``.E``````a4aM.G`a`a`2`a`2`a`a`a`2`a`a`2`a`a`2",
"`a`2`a`2`a`2`a`a`2`a`a`a`aaY`A`z`z`z`z`zaY`A`z`z`Da2.X.X`q.c....`I..`I..`IaG.X.X.K``#R`l.e`c`.````.#`a`a`2`a`2`a`2`a`2`a`a`2`a`a",
"`a`2`a`a`2`a`2`a`a`a`2`t.`aJ`z`z`z`zaY`A`z`z`z`A.Ua2.X.X.Z.c.............ca3.XaK`V``aC.z`f.z#R.e````.k`a`a`2`a`2`a`a`a`2`a`a`2`a",
"`a`2`a`2`a`a`a`2.6`tag#u#i#j`z`A`z`z`z`z`zaY`z`z.Ua2.X.X#P.c....`I.......caG.X#8``.e.E#t`YavaB.e```````p`a`a`2`a`2`a`2`a`2`a`a`2",
"`a`2`a`a`2`a`2`a`2`0.t.X`F`J.U`D`A`A`z`z`z`z`z`A.U.i.X.X`q.c........#f..`I`L.X.5```g.Y`Y#B.zav.r`````````p`a`a`2`a`2`a`a`a`2`a`a",
"`a`2`a`2`a`2`a`2#0a5.X.X.X.X`M#``DaY`A`z`z`z`z`A.Ua2.X.X.Z.c....#faZ.....c.D.X`V```c`caBava`aCad.E`````````p`a`a`a`a`2`a`2`a`2`a",
"`a`2`a`a`2`a`a`2`h.X.X.X.X.X.X.Xaf.l`D`z`A`zaY`A.Ua2.X.X#P.c..........#f`Ia6#7``````.e``.sas.e``````````````.#`a`2`a`2`a`a`2`a`2",
"`a`2`a`2`a.6`t`X.X.X.X.X.X.X.X.X.Xa8`5.U.U`A`z`A.Ua2.X.X`7.c....`I....`I.M.X#c``````````ad`4``````````````````a.`a`a`2`a`2`a`a`a",
"`a`2`a`a`2`a`c#W`m.m.X.X.m.X.X.X.X.X.X`h`R#z`z`A.U.i.X.X#P.c......#faZ.c`m.X.x``````````````````````.e````.P.e.n`2`a`2`a`a`2`a`2",
"`a`2`a`2`aaH#KaZ.caT`W.X.X.X.X.X.X.X.X.XaK#I`z`DaYa2.X.X#P.c....#faZ..#f.S#5``````````````````````.eaC.Q.e.e.Q.L`p`a`a`2`a`a`2`a",
"`a`2`a.6`2#Q.0#1aQ`I.c.d.p.X.X.m.X.X.X.X.X.X#Y#C#ja2.X.X`7.c........`IaT.X.V````````````````````````.L.Yad#4#S`4``.G`a`2`a`2`a`2",
"`a`2`a`2`0`F`Q`L.c`IaQ.c..`m.m.X.X.X.X.X.X.X.X.X#u`M.X.X#P.c....#faZ.c.W.X`3````````````````````````.eaa`Yawai.e```p`a`2`a`a`2`a",
"`a`a.6`t`C.X.X.X.JaT`y.....caT.J.X.X.X.X.X.X.X.X.X.X.X.X`7.c........#1aI`i``````````.e````.e````.e```c`b.z.z#tas````.G`a`2`a`2`a",
"`2`a`a`2.U#`aP.X.X.m`m...c...c`y`L`Q.X.X.X.X.X.X.X.X.X.X.Z.c......`I`T.X#F``````````````````````.eas.sa7#BaAak`f.Q.e.k`a`2`a`a`2",
"`a`2`2#0.a.l.l`r.m.X.X.p.d.vaTaTaQ.v`1.X.X.X.X.X.X.X.m.X`q.c.......c`O.X.h````````````````````````a4``.e`f#h.e.P.P`````2`a`2`a`a",
"`a`a`t`8.X.HaKayaK.X.m.X.X#N.m#NaK.ma6.m.X.m.X.m.X.X.m.X.Z.c.......c.N.4.P````````.e````.e````````````.e#4am.e````````.1`a`a`2`a",
"`a`2.q.b.X.X.X.X.X.X.X.X.X.X.X.X.X.X.X.X.X.X.X.X.X.X.X.X.Z.c....`I.v.X#r````a4a1````````a4``.e``````````.E`4``````````.k`a`2`a`2",
"`a`2#i`G`G`G`G`G`G`G`G`G`G`G`G`G`G`G`G`G`G`G`G`G`G`G`G.Ja3`I.....c`q.X`B```````````````````````````````````````````````H`2`a`a`a",
"aq`a#o#M`k`y`y`y.c`y`y`y`y.c.c`y`y`y`y`y`y`k.c`y`y.c`y`y`y......#1aV.b`4```3#G#F.O`````V#G#F.O```````B.5#OaM.5.I``aM.K.I.G`a`2`a",
"`a`aab#Va3.DaEaT`IaTaR.D.d..`I.d.Z#P`7.v.ZaG`Ia0.d.caTaE`OaQ`I`I`N.m.R``#G.X.X.X`s``.I`S.X.X.X#E````#5.X`3`B.X.Ha4`3.X`s.#`a`a`2",
"`2`a#saZa6.m#N#N..`O.Xa6.X.W`I#N.X.X.S.v.X`G.v.X.W.v#N.X.X.N...c.d.X`B.I.XaK.K`B`VaMa8.X.K.5.X#5``#O`FaK``#G.X.X.O.w.X#c`p.q`2`a",
"`a`a#Z#L.X.da0.XaQ.J`v`I.m`G.v.X.Z.caQ.c.SapaIap`y.N.XaQ.D.X.M`y.J`F#O#y.X#E``````.5.X#8``#O.XaKa4.O.X#y``a#.X.X.5.V.X.I`p`a`a`a",
"`a`a.CaO.X.S#N.D.ca6a6.W.Xa0a0.Xa6.SaT`yaR.X#NaT...X`W`yaE.X.M`I.m.R`V.Xa8`4``a4``#r.X#c``.x.X.H``.K.X#r``.ta8#y`sat.XaU`p`a`a`2",
"`2.6#k#T.XaW.maE...m#N.X`G`yaW.X`G#x.v`I`u.X`v..aT.X.D`y.J.X..a3.X.I.I.X#8````````#8.X#E``.I.X#y``#r.X.K`4.X#8.5aK.Ha8a1.k`a`a`a",
"`a.6.CaVa6`k#N`W.M.X`7`QaV`y`ua6.c`I`yaW.maE.Xa0aQ.XaWaQ.X.N`y`q.XaU#E.X#8````````#3.X.w```r.X#F``#y.X`3aX.X#F`3.X.X#8``.k`a`a`2",
"`a`2aFa6.X#N.X.M.W.XaQ.J.m.v`v.X.Xa6aG.XaEaQ.X#x`yaV.X.X#N.M`y`q.X.x.O.XaK#G#F.O``#F.Xat#G.XaK`VaMaK.ma4.5.X.Ka4aK.X#F``.#`a`2`a",
"`a`2`n.2.Z.ZaT.c#U`7..#U`7.va0.ZaR`LaTaRaQ..`7#X`IaQaRaE.v`I.c`q.X.O``at.X.X.X.5``#OaP.X.X.H.w```3.X#5``#r.X.h``#y.X#E``.#`a`a`2",
"`2`a.fao`k`y`y`I`k`y#1`y`k.c`k`y`k`y`y`y.c.c`y`k.c.c`k`y.caQ.c`q.X.h``a4`B#E`3``````aM.I.w#O````a4aX`V```V`3a4```V.OaM``.#`a`a`a",
"`a`2.3aV.J.J.J.J.J.J.J.J.J.J.J.J.J.J.J.J.J.J.J.J.J.J.J`Wa3`I.c.d.X.O``````````````````````````````````````````````````.ea.`a`2`a",
".6`t#m.X`S.X.X.X.X.X.X.X.X.X.X.X.X.X.X.X.X.X.X.X.X.X.X.X.Z.c`I.d.X.h````````````````````````````````````````````````````.G`a`a`2",
"`a`t.u.X.X.X.X.X.m.X.X.X.X.X.X.m.X.X.X.X.X.X.X.X.m.m.m.X`7`I.c.d.X`B``````````````````````````````````````.e````````.e.n`2`a`2`a",
"`a`2.6#``K#`aSauaK.X.X.X.X.m.X.X.m.DaGa3`LaOaGaG`1.X.X.X.Z.c`I.d.X`B````````````````````````````````.e````````.e```````p`a`2`a`2",
"`a`a`a`D#j.la#`S.X.X.X.X.m.X.X.N.M`y`I`I.c`y`N.J.X.X.X.X#P.c`I.d.X`B``````````````````````````.e``.e`PaM.e.e.E.E``````.#`a`a`a`a",
"`2`a`2`6.yaK.X.X.X.X.X.X.X`v#P.c`I..aQ`I..`m.m.X.X.X.X.X`7.c`I.d.X`B``````````````````````.e````````.Qak`P.Qak.L```````2`a`2`a`2",
"`a`a`2`0aK.X.X.X.X.X.X.m#xaQ.c......`ya3`Q.X.X.Xa2#Y.X.X.Z.c.c.d.X`B````````````````.e``````````````.e.saA.zaa.e``.e`p`a`2`a`2`a",
"`2`a`a.G`8.X.X.X.X.X.Sa3.c`IaQ...caQ`G`S.X.X`F`J`D`h.X.X#P.c`I`L.X`B``````````````````````````````.eaMakavav#ha4````.1`a`2`a`a`2",
"`a`2`a`2`x.X.X.X#N.W`I.c..aQ.c.c`O`v`S.X.X.F#D`D.Ua2.X.X.Z.c`I`L.X.I````````````````````````````.e.Q#6.z.z#B.z.s.L.n`2`a`a`2`a`a",
"`a`2`a`a`t#w.X.J.v.c......`yaG`u`S.X.X.t`K`DaYaJ.Ua2.X.X#P.c`I`L.X`B````````````.e````.e````.e````.L.L`4a7ak.P`j`P.#`a`a`2`a`2`a",
"`a`2`a`2`2ag`q.c`I.....c`N.DaK.X.X.Xau`z`D`A`z`z.Ua2.X.X.Z.c`I`L.X.I``````````````````````````````.e``.e.r`l.e```H`a`a`a`a`2`a`2",
"`a`2`a`a`2`2.A.0`N`I#1.d`Q.X.X.Xa2`R#z`z`A`z`z`A.Ua2.X.X#P.c`I`L.X.I``````````````````a4`````````````````j.L````.G`a`a`2`a`2`a`a",
"`a`2`a`2`a`a`a#s#M.v.J.X.X.X.H#g.U.U`A`z`z`z`z`A.Ua2.X.X.Z.c`I`L.X.I``````````````a4a4.e``.ea4````````````````.#`a`a`2`a`2`a`2`a",
"`a`2`a`a`2`a`a.U#n.m`S.X.X#w.l`D`z`z`z`z`z`z`z`z.Ua2.X.X#P.c.c`L.X.I``````````````.eae.Q.e`g`l.e``````````.e`p`a`a`2`a`a`a`2`a`2",
"`a`2`a`2`a`2`a.G#b`S.XaP#``D.U`A`z`z`z`z`z`z`z`AaHa2.X.X`7.c`I.j.X.w````````````.P.e#R#Ba`.zad````````.e``.n`2`a`2`a`2`a`2`a`a`a",
"`a`2`a`a`2`a`a`aa.al#IaY.U`A`z`z`z`z`zaY`z`zaYaJ.Ua2.X.X#P.c`I`L.X.w``a4``````````.e.Q.z`Y`b.E.e````````.n`2`a`2`a`a`2`a`a`2`a`2",
"`a`2`a`2`a`2`a`2`a`2`t`z`z`z`z`z`z`z`z`A`z`z`z`z.Ua2.X.X.Z.c`Ia3.X.I.Bas.e````````amaA`Y#B`Y.Yad``````.n.G`a`2`a`2`a`a`2`a`a`2`a",
"`a`2`a`a`2`a`2`a`a`2`aaq`z`z`z`zaY`A`z`z`z`z`z`A.Ua2.X.X#P.c`Ia3.X.g`U`4````````aM#4ama``YaDamam````.n`2`a`2`a`2`a`2`a`a`2`a`a`2",
"`a`2`a`2`a`a`a`2`a`2`a`2`aaY`z`z`z`z`zaY`z`zaY`A.Ua2.X.X.Z.c`Ia3.X#q#a.e.e``````.e.e.e.L.Y`4.e.e```p`2`a`2`a`a`a`2`a`2`a`a`2`a`a",
"`a`2`a`a`2`a`2`a`2`a`a`2`a`a.``z`z`z`z`z`z`z`z`z.Ua2.X.X#P.c`Ia3.X#.`Y`..E`````````````4am``````.#`a`a`2`a`2`a`2`a`a`a`2`a`a`2`a",
"`a`2`a`2`a`2`a`a`a`2`a`a`2`a`aaqaY`z`z`z`z`z`z`A.Ua2.X.X`q.c`Ia3.X#J`waeas```````````````````H.G`a`a`a`a`2`a`2`a`2`a`2`a`2`a`a`2",
"`a`2`a`a`2`a`2`a`2`a`2`a`a`2`a`a`a.``z`z`zaY`z`AaHa2.X.X.Z.c`I.j.X#l``.e.e``````````.e``.n.1`a`a`a`2`a`2`a`a`a`2`a`2`a`a`a`2`a`a",
"`a`2`a`2`a`a`2`a`a`2`a`2`a`a`2`2`a`a`a.`aY`A`z`z.Ua2.X.X#P#1`I.j.X#E``a4``````.e`````p.#`a`a`a`2`a`a`2`a`2`a`2`a`a`a`2`a`2`a`2`a",
"`a`2`a`a`2`a`a`2`a`a`2`a`2`a`a`a`2`a`2`a`aaq.``A.U#7.X.X.Z#MaN#U.X#E```````````p.#.G`a`a`a`2`a`a`2`a`a`2`a`2`a`2`a`2`a`2`a`a`2`a",
"`a`2`a`2`a`2`a`a`2`a`a`2`a`2`a`2`a`2`a`a`2`a`a`a`2`E#m`8##.f#Z`d`i#v`H.k.#.G`2`2`a`a`a`2`a`a`2`a`a`2`a`a`2`a`a`2`a`a`2`a`2`a`a`2",
"`a`2`a`a`2`a`2`a`a`2`a`a`2`a`2`a`a`a`2`a`a`2`a`2`2.G`t`t`2`a`a`2`2`2`a`a`a`a`a`a`a`a`2`a`2`a`a`2`a`a`2`a`a`2`a`a`2`a`a`2`a`2`a`a",
"`a`2`a`2`a`a`a`2`a`a`2`a`a`2`a`2`a`2`a`2`a`a`2`a`a`a`a`a`a`a`2`a`2`a`a`a`a`2`a`2`a`2`a`a`a`2`a`a`2`a`a`2`a`a`2`a`a`2`a`a`2`a`2`a",
"`a`2`a`a`2`a`2`a`2`a`a`2`a`a`2`a`2`a`a`a`2`a`a`2`a`a`a`a`2`a`a`2`a`2`a`2`a`a`2`a`2`a`2`a`2`a`2`a`a`2`a`a`2`a`a`2`a`a`2`a`a`2`a`2"
};
